HIERARCHY
ROOT SpineBase
{
  OFFSET 0.000000 0.000000 0.000000
  CHANNELS 6 Xposition Yposition Zposition Zrotation Xrotation Yrotation
  JOINT SpineMid
  {
    OFFSET 0.000000 27.313395 0.000000
    CHANNELS 3 Zrotation Xrotation Yrotation
    JOINT SpineShoulder
    {
      OFFSET -0.301847 20.473229 -0.642939
      CHANNELS 3 Zrotation Xrotation Yrotation
      JOINT Neck
      {
        OFFSET -0.212849 6.789936 -0.459244
        CHANNELS 3 Zrotation Xrotation Yrotation
        JOINT Head
        {
          OFFSET -0.803862 11.755222 1.157306
          CHANNELS 3 Zrotation Xrotation Yrotation
          End Site
          {
            OFFSET 0 0 0
          }
        }
      }
      JOINT ShoulderLeft
      {
        OFFSET -8.422010 -5.806476 4.937364
        CHANNELS 3 Zrotation Xrotation Yrotation
        JOINT ElbowLeft
        {
          OFFSET 0.068966 -26.915488 8.565873
          CHANNELS 3 Zrotation Xrotation Yrotation
          JOINT WristLeft
          {
            OFFSET -2.657715 -29.006569 2.600247
            CHANNELS 3 Zrotation Xrotation Yrotation
            JOINT HandLeft
            {
              OFFSET 1.299270 -7.593914 -3.288076
              CHANNELS 3 Zrotation Xrotation Yrotation
              JOINT HandTipLeft
              {
                OFFSET -0.173602 -2.000103 -0.552418
                CHANNELS 3 Zrotation Xrotation Yrotation
                End Site
                {
                  OFFSET 0 0 0
                }
              }
              JOINT ThumbLeft
              {
                OFFSET -1.017689 -1.346963 0.322944
                CHANNELS 3 Zrotation Xrotation Yrotation
                End Site
                {
                  OFFSET 0 0 0
                }
              }
            }
          }
        }
      }
      JOINT ShoulderRight
      {
        OFFSET 2.870779 -3.511344 -11.960249
        CHANNELS 3 Zrotation Xrotation Yrotation
        JOINT ElbowRight
        {
          OFFSET 1.406803 -21.577072 -5.103242
          CHANNELS 3 Zrotation Xrotation Yrotation
          JOINT WristRight
          {
            OFFSET -5.266787 -20.756463 -0.001981
            CHANNELS 3 Zrotation Xrotation Yrotation
            JOINT HandRight
            {
              OFFSET -0.614323 -7.487995 2.389791
              CHANNELS 3 Zrotation Xrotation Yrotation
              JOINT HandTipRight
              {
                OFFSET -2.167858 -6.958044 -0.505314
                CHANNELS 3 Zrotation Xrotation Yrotation
                End Site
                {
                  OFFSET 0 0 0
                }
              }
              JOINT ThumbRight
              {
                OFFSET 7.605957 -1.619440 -1.605488
                CHANNELS 3 Zrotation Xrotation Yrotation
                End Site
                {
                  OFFSET 0 0 0
                }
              }
            }
          }
        }
      }
    }
  }
  JOINT HipLeft
  {
    OFFSET -4.213209 0.566982 -0.043568
    CHANNELS 3 Zrotation Xrotation Yrotation
    JOINT KneeLeft
    {
      OFFSET 5.613004 -35.197972 1.429271
      CHANNELS 3 Zrotation Xrotation Yrotation
      JOINT AnkleLeft
      {
        OFFSET 2.247306 -29.812444 7.713491
        CHANNELS 3 Zrotation Xrotation Yrotation
        JOINT FootLeft
        {
          OFFSET -3.960325 -4.495420 -5.109099
          CHANNELS 3 Zrotation Xrotation Yrotation
          End Site
          {
            OFFSET 0 0 0
          }
        }
      }
    }
  }
  JOINT HipRight
  {
    OFFSET 1.485103 0.677921 -5.696185
    CHANNELS 3 Zrotation Xrotation Yrotation
    JOINT KneeRight
    {
      OFFSET 0.314204 -27.153067 -2.784836
      CHANNELS 3 Zrotation Xrotation Yrotation
      JOINT AnkleRight
      {
        OFFSET 4.489848 -36.744735 6.381260
        CHANNELS 3 Zrotation Xrotation Yrotation
        JOINT FootRight
        {
          OFFSET -4.604923 -6.700660 -0.472189
          CHANNELS 3 Zrotation Xrotation Yrotation
          End Site
          {
            OFFSET 0 0 0
          }
        }
      }
    }
  }
}
MOTION
Frames: 13
Frame Time: 0.033333
102.800125 73.968546 388.699387 -5.014484 -5.292370 31.347364 -0.033515 0.067798 -31.811234 -0.061884 -0.147215 -0.283020 10.311014 15.466483 -0.495258 0.000000 0.000000 0.000000 0.234797 -16.382170 -1.733696 -36.485926 22.389961 12.752342 17.034540 -11.747329 10.838047 9.215969 4.513902 -4.736504 0.000000 0.000000 0.000000 0.000000 0.000000 0.000000 8.302389 0.138797 -0.994710 -8.986010 10.994304 0.586874 -20.616302 13.864773 -6.755524 26.062216 -18.511718 14.547871 0.000000 0.000000 0.000000 0.000000 0.000000 0.000000 12.864167 -6.246317 -31.713875 -49.060506 33.797651 6.905044 19.209465 -19.762504 17.625258 0.000000 0.000000 0.000000 -11.505585 23.495252 -24.654569 42.891362 -16.654315 5.523997 -37.444855 43.781146 -13.631423 0.000000 0.000000 0.000000
99.932442 74.224160 387.837023 -5.435784 -4.595859 31.721948 -0.069779 0.026799 -32.178836 -0.058314 -0.210361 -0.294084 9.355689 15.168342 -0.047020 0.000000 0.000000 0.000000 -0.269379 -19.049217 -2.242590 -38.855024 20.302534 14.098293 9.964885 -13.006178 13.514945 18.411497 3.718733 -9.013834 0.000000 0.000000 0.000000 0.000000 0.000000 0.000000 8.971745 -0.018884 -0.994154 -9.579476 10.798701 0.573060 -18.861340 13.844439 -6.364960 27.903709 -20.036436 15.298739 0.000000 0.000000 0.000000 0.000000 0.000000 0.000000 15.561652 -10.264016 -31.593275 -63.651090 34.306821 9.341294 27.609834 -19.660143 23.270218 0.000000 0.000000 0.000000 -9.800697 21.503846 -25.978060 43.720572 -17.601319 6.341412 -47.087428 47.809620 -9.981087 0.000000 0.000000 0.000000
97.239147 74.372433 386.786598 -5.558098 -3.817824 34.421330 -0.199112 -0.005131 -34.844697 -0.163551 -0.307317 -0.303192 9.760052 15.129773 0.005805 0.000000 0.000000 0.000000 -0.185904 -20.169472 -2.408260 -38.456240 19.446885 14.030502 4.737019 -10.941756 16.249481 20.840649 -2.125940 -11.304517 0.000000 0.000000 0.000000 0.000000 0.000000 0.000000 9.280818 -0.239621 -0.923184 -8.753185 10.714485 0.343268 -15.955690 11.372514 -5.637003 27.891693 -16.807302 13.429011 0.000000 0.000000 0.000000 0.000000 0.000000 0.000000 16.378537 -13.977987 -33.763536 -71.639521 32.998495 10.006350 36.332728 -17.535134 24.879279 0.000000 0.000000 0.000000 -10.245203 22.246655 -28.421906 49.338264 -18.910731 8.236874 -52.933477 47.349198 -7.361851 0.000000 0.000000 0.000000
94.306109 74.286388 386.065126 -6.042729 -3.383266 34.353330 -0.217584 0.081102 -34.775824 -0.161198 -0.316289 -0.317998 9.540907 14.999951 0.276140 0.000000 0.000000 0.000000 1.149052 -19.053989 -2.012268 -35.120697 21.055318 12.520656 -1.294127 -12.265889 16.523301 19.684741 -6.638504 -12.087035 0.000000 0.000000 0.000000 0.000000 0.000000 0.000000 9.579115 -0.745411 -0.800157 -8.624882 10.342201 0.381242 -11.035512 9.406657 -4.355881 25.960339 -16.177308 11.572026 0.000000 0.000000 0.000000 0.000000 0.000000 0.000000 16.882695 -13.290292 -33.438693 -70.374462 31.317603 7.643826 38.856820 -19.097834 27.071989 0.000000 0.000000 0.000000 -9.783293 19.217790 -29.096495 49.922245 -15.947704 7.826025 -59.733969 46.561829 -5.626112 0.000000 0.000000 0.000000
91.300513 74.258757 385.182969 -6.403367 -2.896357 32.498360 -0.312843 0.109058 -32.911573 -0.255599 -0.318721 -0.333447 9.986854 13.932564 0.334290 0.000000 0.000000 0.000000 0.243216 -23.414192 -2.873708 -29.413324 25.732836 13.576944 -11.320303 -12.721302 17.611077 28.250142 0.609999 -13.862806 0.000000 0.000000 0.000000 0.000000 0.000000 0.000000 8.619009 -1.511688 -0.367340 -5.604894 10.393633 -0.107375 -9.585070 8.340041 -3.623516 23.303781 -14.206468 9.470041 0.000000 0.000000 0.000000 0.000000 0.000000 0.000000 15.543112 -10.396903 -31.782654 -61.738278 28.184656 3.924946 37.512816 -22.206732 29.144774 0.000000 0.000000 0.000000 -8.258466 12.013219 -29.045991 46.886337 -11.237068 5.831501 -58.483383 45.937733 -7.812285 0.000000 0.000000 0.000000
88.049577 73.955551 384.607731 -7.190283 -2.777788 26.135302 -0.137532 0.112844 -26.575000 -0.143368 -0.231031 -0.341492 8.279362 13.409253 0.907470 0.000000 0.000000 0.000000 0.617411 -22.762943 -2.898239 -20.474097 25.548976 10.086289 -27.356907 -11.277618 21.155170 32.472633 -5.124818 -16.590741 0.000000 0.000000 0.000000 0.000000 0.000000 0.000000 8.264721 -2.333728 -0.136570 -4.414602 10.027071 -0.126903 -7.945272 9.169941 -3.125839 23.667956 -13.724531 8.832122 0.000000 0.000000 0.000000 0.000000 0.000000 0.000000 13.817927 -4.750623 -25.827683 -49.554667 24.223834 0.139677 32.113205 -23.400148 28.829563 0.000000 0.000000 0.000000 -5.930354 0.296632 -25.061150 42.003953 -0.412029 1.614264 -59.377311 43.198613 -10.881573 0.000000 0.000000 0.000000
85.078134 73.793194 383.614733 -7.555575 -2.294539 19.885189 -0.073114 0.024483 -20.309351 -0.056460 -0.174707 -0.335388 7.874478 13.229271 1.096570 0.000000 0.000000 0.000000 3.160451 -18.257224 -1.626420 -16.322417 19.466805 6.076103 -31.118619 -6.308368 23.400434 26.227430 -11.897106 -16.780286 0.000000 0.000000 0.000000 0.000000 0.000000 0.000000 7.343985 -2.740754 0.164705 -2.584173 8.609429 -0.241296 -5.420927 11.890447 -2.435222 23.781188 -16.699892 9.318449 0.000000 0.000000 0.000000 0.000000 0.000000 0.000000 9.549563 0.629004 -19.713110 -34.997147 18.276759 -2.929201 20.885825 -17.687954 23.540636 0.000000 0.000000 0.000000 -2.499780 -7.598187 -20.106717 37.869358 6.513695 -0.839141 -59.451485 41.665147 -12.704078 0.000000 0.000000 0.000000
81.801821 74.014537 382.359450 -8.420363 -1.645992 11.962034 -0.005390 -0.052990 -12.377228 0.045616 -0.131506 -0.345698 8.865835 12.032599 1.050874 0.000000 0.000000 0.000000 6.358623 -7.439561 -0.275628 -14.619583 8.776904 1.682705 -29.032506 -9.839415 18.475366 21.016479 -7.034440 -14.030548 0.000000 0.000000 0.000000 0.000000 0.000000 0.000000 8.077823 -3.225444 0.218180 -3.625129 8.118061 -0.052134 -0.826582 13.700622 -1.626052 21.507636 -17.039233 7.935180 0.000000 0.000000 0.000000 0.000000 0.000000 0.000000 5.774806 4.805277 -11.428103 -22.493440 10.341287 -5.089978 11.637833 -13.643088 22.053999 0.000000 0.000000 0.000000 4.157814 -12.211908 -12.520188 33.461726 9.918547 -1.354300 -61.046576 40.361969 -12.603609 0.000000 0.000000 0.000000
78.537388 74.503108 380.948694 -9.165855 -0.842008 3.265055 0.066135 -0.190049 -3.649435 -0.047673 -0.047983 -0.356252 9.690845 10.934671 1.098756 0.000000 0.000000 0.000000 11.127369 11.711119 1.044655 -16.585212 -11.652649 -4.776289 -24.467019 -9.951012 14.932209 12.753461 -6.803927 -10.361123 0.000000 0.000000 0.000000 0.000000 0.000000 0.000000 7.487191 -3.261783 0.640365 -2.536743 7.474482 -0.504820 2.968694 11.695544 -0.635524 17.802535 -14.953818 5.244216 0.000000 0.000000 0.000000 0.000000 0.000000 0.000000 3.289732 7.243109 -2.160295 -13.417457 2.125403 -5.911129 1.664400 -9.564819 23.158461 0.000000 0.000000 0.000000 9.706374 -13.957380 -3.603301 30.992490 11.242807 -1.529904 -62.075386 40.548683 -12.159506 0.000000 0.000000 0.000000
75.552916 74.908660 379.957602 -9.602257 -0.617511 -2.249703 0.171313 -0.070574 1.883007 0.139412 -0.076466 -0.355330 9.046252 10.440437 1.271991 0.000000 0.000000 0.000000 18.364856 38.974645 0.392308 -27.426430 -39.273383 -17.484408 -23.465902 -8.125215 13.998099 9.377804 -6.901332 -8.502610 0.000000 0.000000 0.000000 0.000000 0.000000 0.000000 7.315504 -2.874218 0.783673 -2.665359 7.262726 -0.737152 4.841113 7.610333 0.187573 13.841791 -12.822335 3.446950 0.000000 0.000000 0.000000 0.000000 0.000000 0.000000 0.533411 7.283206 3.489826 -3.439907 0.133038 -3.633869 -8.012531 -10.160187 23.666282 0.000000 0.000000 0.000000 12.956521 -12.581044 2.003512 28.656811 9.629523 -0.711215 -64.223282 42.532721 -10.169393 0.000000 0.000000 0.000000
73.472843 75.331048 378.981948 -9.211940 -0.371903 -1.322766 0.323404 0.068398 1.011910 0.209847 -0.140127 -0.330306 6.792603 10.154052 1.566635 0.000000 0.000000 0.000000 29.825121 62.281725 -6.621821 -53.757133 -58.065485 -43.529516 -22.751157 -11.445893 11.444417 9.768640 -2.705008 -6.514971 0.000000 0.000000 0.000000 0.000000 0.000000 0.000000 5.908267 -2.820405 0.955054 -1.549958 7.648833 -1.194310 1.018797 5.685958 -0.611841 14.055146 -9.601163 3.311290 0.000000 0.000000 0.000000 0.000000 0.000000 0.000000 -1.457020 4.626179 1.996496 2.306219 3.501318 -1.503955 -4.512071 -19.128316 23.813970 0.000000 0.000000 0.000000 11.723573 -11.690868 1.115884 27.276929 6.038181 0.192757 -62.381675 42.633520 -7.948807 0.000000 0.000000 0.000000
71.506091 75.252321 378.306222 -8.578289 -0.363518 -0.623909 0.281166 0.219966 0.348089 0.267886 -0.181858 -0.305152 5.001312 10.549657 1.793163 0.000000 0.000000 0.000000 51.527948 74.984027 -25.583623 -86.016475 -62.542993 -74.708884 -23.310265 -8.495770 12.885330 7.720857 -13.803327 -8.587664 0.000000 0.000000 0.000000 0.000000 0.000000 0.000000 3.792303 -2.523763 1.274064 -0.262853 8.109451 -1.808391 3.142508 1.664977 0.443666 6.985012 -6.047793 1.142259 0.000000 0.000000 0.000000 0.000000 0.000000 0.000000 -1.183314 -0.332697 0.058844 4.685550 14.380588 0.887613 1.097937 -33.322113 24.892833 0.000000 0.000000 0.000000 8.696404 -8.126063 0.466839 29.939191 -1.730180 2.233015 -65.061000 45.251829 -3.662070 0.000000 0.000000 0.000000
70.412278 74.819618 377.872368 -7.253617 -0.539390 6.701837 0.263376 0.365021 -6.936516 0.174418 -0.210515 -0.265974 5.325703 10.817347 1.451066 0.000000 0.000000 0.000000 81.209117 79.105189 -54.109304 -105.763843 -60.036069 -93.191699 -23.579085 -4.522301 15.031466 5.353176 -22.552077 -11.046957 0.000000 0.000000 0.000000 0.000000 0.000000 0.000000 1.286737 -1.941390 1.558737 1.417563 8.090956 -2.372673 4.478550 -5.694453 1.685144 -0.944131 3.676096 -1.041726 0.000000 0.000000 0.000000 0.000000 0.000000 0.000000 -6.670999 -4.106211 -8.698550 12.486111 23.288880 2.231485 3.615130 -43.655152 27.696437 0.000000 0.000000 0.000000 0.985354 -2.581110 -6.295005 33.278176 -11.406285 4.247163 -61.226047 44.962208 -0.055786 0.000000 0.000000 0.000000
